:version 1.10
:name ASF
:units
  mass 1
  length 1
  angle deg
:documentation
  ASF file generated by Kaydara
:root
  axis xyz
  order  tx ty tz rx ry rz
  position 0 0 0
  orientation 0 0 0
:bonedata
  begin
    id 1
    name lfemurDummy
    direction 0.61522 -0.761478 0.204097
    length 5.68318
    axis 0 -0 0 xyz
  end
  begin
    id 2
    name lfemur
    direction 0.34202 -0.939693 -5.84747e-008
    length 16.9147
    axis 0 -0 20 xyz
    dof rx ry rz
    limits( -inf , inf )
( -inf , inf )
( -inf , inf )

  end
  begin
    id 3
    name ltibia
    direction 0.34202 -0.939693 1.20839e-009
    length 18.0532
    axis 0 -0 20 xyz
    dof rz ry rx
    limits( -inf , inf )
( -inf , inf )
( -inf , inf )

  end
  begin
    id 4
    name lfoot
    direction 0.0841971 -0.23133 0.969225
    length 5.23822
    axis -90 7.62852e-016 20 xyz
    dof ry rx rz
    limits( -inf , inf )
( -inf , inf )
( -inf , inf )

  end
  begin
    id 5
    name ltoes
    direction 0 0 0
    length 0
    axis 0 0 0 xyz
    dof rz ry rx
    limits( -inf , inf )
( -inf , inf )
( -inf , inf )

  end
  begin
    id 6
    name rfemurDummy
    direction -0.625247 -0.75382 0.202044
    length 5.74091
    axis 0 -0 0 xyz
  end
  begin
    id 7
    name rfemur
    direction -0.34202 -0.939693 -1.47013e-008
    length 16.4922
    axis 0 -0 -20 xyz
    dof rx ry rz
    limits( -inf , inf )
( -inf , inf )
( -inf , inf )

  end
  begin
    id 8
    name rtibia
    direction -0.34202 -0.939693 -7.74345e-010
    length 18.2421
    axis 0 -0 -20 xyz
    dof rz ry rx
    limits( -inf , inf )
( -inf , inf )
( -inf , inf )

  end
  begin
    id 9
    name rfoot
    direction -0.124331 -0.341598 0.931586
    length 5.45787
    axis -90 -7.62852e-016 -20 xyz
    dof ry rx rz
    limits( -inf , inf )
( -inf , inf )
( -inf , inf )

  end
  begin
    id 10
    name rtoes
    direction 0 0 0
    length 0
    axis 0 0 0 xyz
    dof rz ry rx
    limits( -inf , inf )
( -inf , inf )
( -inf , inf )

  end
  begin
    id 11
    name lowerbackDummy
    direction 0 0 0
    length 0
    axis 0 -0 0 xyz
  end
  begin
    id 12
    name lowerback
    direction -0.0218484 0.994884 -0.0986304
    length 4.45607
    axis 0 -0 0 xyz
    dof rx ry rz
    limits( -inf , inf )
( -inf , inf )
( -inf , inf )

  end
  begin
    id 13
    name upperback
    direction -0.00973057 0.999717 -0.0217111
    length 4.47449
    axis 0 -0 0 xyz
    dof rx ry rz
    limits( -inf , inf )
( -inf , inf )
( -inf , inf )

  end
  begin
    id 14
    name thorax
    direction -0.000928171 0.999699 0.0245198
    length 4.50973
    axis 0 -0 0 xyz
    dof rx ry rz
    limits( -inf , inf )
( -inf , inf )
( -inf , inf )

  end
  begin
    id 15
    name rclavicle
    direction -0.9009 0.425937 -0.0834055
    length 7.28587
    axis 0 -0 0 xyz
    dof rx ry rz
    limits( -inf , inf )
( -inf , inf )
( -inf , inf )

  end
  begin
    id 16
    name rhumerus
    direction -1 -2.23604e-007 -1.42637e-007
    length 13.5704
    axis 180 30 90 xyz
    dof rx ry rz
    limits( -inf , inf )
( -inf , inf )
( -inf , inf )

  end
  begin
    id 17
    name rradius
    direction -1 5.68281e-008 -4.4952e-007
    length 8.06782
    axis 180 30 90 xyz
    dof rz ry rx
    limits( -inf , inf )
( -inf , inf )
( -inf , inf )

  end
  begin
    id 18
    name rwrist
    direction -1 1.51393e-007 1.38143e-007
    length 4.03391
    axis -90 -90 0 xyz
    dof rz rx ry
    limits( -inf , inf )
( -inf , inf )
( -inf , inf )

  end
  begin
    id 19
    name rthumb
    direction 0 0 0
    length 0
    axis 0 0 0 xyz
    dof ry rx rz
    limits( -inf , inf )
( -inf , inf )
( -inf , inf )

  end
  begin
    id 20
    name rhand
    direction -1 -3.34077e-007 -5.59631e-007
    length 1.29744
    axis -90 -90 0 xyz
    dof ry rx rz
    limits( -inf , inf )
( -inf , inf )
( -inf , inf )

  end
  begin
    id 21
    name rfingers
    direction 0 0 0
    length 0
    axis 0 0 0 xyz
    dof rz ry rx
    limits( -inf , inf )
( -inf , inf )
( -inf , inf )

  end
  begin
    id 22
    name lclavicle
    direction 0.940017 0.332249 -0.0773232
    length 8.29589
    axis 0 -0 0 xyz
    dof rx ry rz
    limits( -inf , inf )
( -inf , inf )
( -inf , inf )

  end
  begin
    id 23
    name lhumerus
    direction 1 7.41158e-008 -1.44768e-008
    length 12.0042
    axis 180 -30 -90 xyz
    dof rx ry rz
    limits( -inf , inf )
( -inf , inf )
( -inf , inf )

  end
  begin
    id 24
    name lradius
    direction 1 -1.32972e-007 3.10821e-007
    length 8.1902
    axis 180 -30 -90 xyz
    dof rz ry rx
    limits( -inf , inf )
( -inf , inf )
( -inf , inf )

  end
  begin
    id 25
    name lwrist
    direction 1 3.08957e-007 4.01394e-007
    length 4.09509
    axis -90 90 0 xyz
    dof rz rx ry
    limits( -inf , inf )
( -inf , inf )
( -inf , inf )

  end
  begin
    id 26
    name lthumb
    direction 0 0 0
    length 0
    axis 0 0 0 xyz
    dof ry rx rz
    limits( -inf , inf )
( -inf , inf )
( -inf , inf )

  end
  begin
    id 27
    name lhand
    direction 1 -1.64125e-007 -6.99514e-007
    length 1.37229
    axis -90 90 0 xyz
    dof ry rx rz
    limits( -inf , inf )
( -inf , inf )
( -inf , inf )

  end
  begin
    id 28
    name lfingers
    direction 0 0 0
    length 0
    axis 0 0 0 xyz
    dof rz ry rx
    limits( -inf , inf )
( -inf , inf )
( -inf , inf )

  end
  begin
    id 29
    name lowerneck
    direction -0.030798 0.998024 0.0547665
    length 3.93918
    axis 0 -0 0 xyz
    dof rx ry rz
    limits( -inf , inf )
( -inf , inf )
( -inf , inf )

  end
  begin
    id 30
    name upperneck
    direction 0.0531588 0.996611 -0.0627736
    length 3.95491
    axis 0 -0 0 xyz
    dof rx ry rz
    limits( -inf , inf )
( -inf , inf )
( -inf , inf )

  end
  begin
    id 31
    name head
    direction 0 0 0
    length 0
    axis 0 0 0 xyz
    dof rx ry rz
    limits( -inf , inf )
( -inf , inf )
( -inf , inf )

  end
:hierarchy
  begin
    root lfemurDummy rfemurDummy lowerbackDummy
    lfemurDummy lfemur
    lfemur ltibia
    ltibia lfoot
    lfoot ltoes
    rfemurDummy rfemur
    rfemur rtibia
    rtibia rfoot
    rfoot rtoes
    lowerbackDummy lowerback
    lowerback upperback
    upperback thorax
    thorax rclavicle lclavicle lowerneck
    rclavicle rhumerus
    rhumerus rradius
    rradius rwrist
    rwrist rthumb rhand
    rhand rfingers
    lclavicle lhumerus
    lhumerus lradius
    lradius lwrist
    lwrist lthumb lhand
    lhand lfingers
    lowerneck upperneck
    upperneck head
  end

:SAMPLES-PER-SECOND 30
:FULLY-SPECIFIED
:DEGREES
66
root  16.09857815 32.695557 4.306822123 -15.90899658 -61.09200287 4.744003296
lowerback  19.46299934 2.890259981 -0.9908130169
upperback  11.30650043 3.087790012 7.327370167
thorax  0.9067419767 1.004070044 7.878680229
lowerneck  6.122079849 6.011559963 0.1282020062
upperneck  14.25409985 7.149990082 5.715760231
head  3.341850042 3.608170033 1.906679988
lclavicle  0 -9.442270133e-015 7.951389973e-016
lhumerus  23.79240036 -8.490690231 87.14969635
lradius  2.147607495e-031 -2.802967371e-031 127.4589996
lwrist  -7.062250077e-031 8.827812596e-032 20.65600014
lhand  -1.496451383e-031 -27.76390076 20.11240005
lfingers  90 7.125020027 -90
lthumb  89.89689403 5.08795885 91.16245106
rclavicle  0 -9.442270133e-015 7.951389973e-016
rhumerus  30.34939957 14.88189983 -74.54769897
rradius  -5.584577115e-032 3.486684531e-031 99.09970093
rwrist  7.062250077e-031 7.062250077e-031 -63.37789917
rhand  -7.920061211e-032 -33.2840004 9.303460121
rfingers  -90 -7.125020027 -90
rthumb  -92.93752616 -24.25625642 -97.11982154
rfemur  -21.62859917 8.504130363 -13.43109989
rtibia  -0 0 76.49130249
rfoot  -0 -16.50530052 11.0383997
rtoes  5.373923086 19.29304026 -105.8922705
lfemur  -23.45030022 -1.417670012 -4.1113801
ltibia  -0 0 78.35929871
lfoot  5.367212128e-032 -34.67589951 4.946780205
ltoes  -4.250644065 -19.5611806 -102.515957
67
root  15.96135567 33.02666672 4.281288808 -15.10800171 -60.4489975 4.184997559
lowerback  18.73970032 2.875349998 -0.6786360145
upperback  10.88169956 3.179229975 6.635980129
thorax  0.8372910023 1.125689983 6.915909767
lowerneck  5.291210175 6.042610168 0.2250169963
upperneck  14.51580048 7.135429859 6.176040173
head  3.572639942 3.636670113 2.086730003
lclavicle  0 -9.442270133e-015 7.951389973e-016
lhumerus  24.60020065 -8.540439606 86.14050293
lradius  2.152887229e-031 -2.798914185e-031 127.5670013
lwrist  0 8.827812596e-032 21.03969955
lhand  -1.496451383e-031 -27.76390076 20.11240005
lfingers  90 7.125020027 -90
lthumb  89.89689403 5.08795885 91.16245106
rclavicle  0 -9.442270133e-015 7.951389973e-016
rhumerus  30.5128994 14.31799984 -75.66870117
rradius  -5.972106382e-032 3.480256239e-031 99.73709869
rwrist  3.531125038e-031 7.062250077e-031 -62.76530075
rhand  -7.920061211e-032 -33.2840004 9.303460121
rfingers  -90 -7.125020027 -90
rthumb  -92.93752616 -24.25625642 -97.11982154
rfemur  -20.34160042 8.0479002 -12.43179989
rtibia  -0 0 75.12590027
rfoot  -0 -17.46980095 9.223750114
rtoes  5.373923086 19.29304026 -105.8922705
lfemur  -22.9836998 -2.170419931 -3.970000029
ltibia  -0 0 76.62400055
lfoot  5.320277936e-032 -33.93840027 4.686600208
ltoes  -4.250644065 -19.5611806 -102.515957
68
root  15.8139777 33.35622352 4.239910982 -14.24099731 -59.91699982 3.583999634
lowerback  17.90780067 2.852509975 -0.1786790043
upperback  10.53590012 3.267960072 5.881869793
thorax  0.9336019754 1.24466002 5.799260139
lowerneck  4.438330173 6.207029819 0.06931570172
upperneck  14.71329975 7.275090218 6.837679863
head  3.765239954 3.737580061 2.379760027
lclavicle  0 -9.442270133e-015 7.951389973e-016
lhumerus  25.56959915 -8.450550079 84.92880249
lradius  2.157622624e-031 -2.795265399e-031 127.6640015
lwrist  0 -0 21.42539978
lhand  -1.496451383e-031 -27.76390076 20.11240005
lfingers  90 7.125020027 -90
lthumb  89.89689403 5.08795885 91.16245106
rclavicle  0 -9.442270133e-015 7.951389973e-016
rhumerus  30.87339973 13.82209969 -76.73110199
rradius  -6.384055474e-032 3.472935703e-031 100.4160004
rwrist  3.531125038e-031 1.059337512e-030 -62.08179855
rhand  -7.920061211e-032 -33.2840004 9.303460121
rfingers  -90 -7.125020027 -90
rthumb  -92.93752616 -24.25625642 -97.11982154
rfemur  -19.12820053 7.861619949 -11.3039999
rtibia  -0 0 73.72750092
rfoot  -0 -18.26000023 7.51500988
rtoes  5.373923086 19.29304026 -105.8922705
lfemur  -22.50279999 -2.679339886 -3.661910057
ltibia  -0 0 74.86109924
lfoot  5.270393565e-032 -33.12390137 4.475190163
ltoes  -4.250644065 -19.5611806 -102.515957
69
root  15.66642251 33.68399913 4.180200081 -13.59599304 -59.40899658 3.244995117
lowerback  17.11100006 2.840460062 0.1936919987
upperback  10.2027998 3.343209982 5.099229813
thorax  1.033259988 1.347239971 4.744830132
lowerneck  3.698349953 6.415309906 -0.3048149943
upperneck  14.78499985 7.476220131 7.56427002
head  3.87906003 3.859309912 2.727530003
lclavicle  0 -9.442270133e-015 7.951389973e-016
lhumerus  26.49160004 -8.113189697 83.70200348
lradius  2.16240053e-031 -2.791570881e-031 127.762001
lwrist  -7.062250077e-031 -0 21.78289986
lhand  -1.496451383e-031 -27.76390076 20.11240005
lfingers  90 7.125020027 -90
lthumb  89.89689403 5.08795885 91.16245106
rclavicle  0 -9.442270133e-015 7.951389973e-016
rhumerus  31.42709923 13.37609959 -77.55130005
rradius  -6.787910115e-032 3.465268648e-031 101.0830002
rwrist  1.059337512e-030 7.062250077e-031 -61.62170029
rhand  -7.920061211e-032 -33.2840004 9.303460121
rfingers  -90 -7.125020027 -90
rthumb  -92.93752616 -24.25625642 -97.11982154
rfemur  -17.9531002 7.86894989 -10.24499989
rtibia  -0 0 72.313797
rfoot  -9.341501751e-032 -19.08930016 5.797389984
rtoes  5.373923086 19.29304026 -105.8922705
lfemur  -22.04920006 -3.085190058 -3.355139971
ltibia  -0 0 73.06639862
lfoot  5.218803749e-032 -32.24549866 3.369610071
ltoes  -4.250644065 -19.5611806 -102.515957
70
root  15.51964377 34.02511116 4.115044601 -12.68699646 -58.94799805 2.684005737
lowerback  16.49609947 2.841550112 0.621235013
upperback  9.708860397 3.45291996 4.326169968
thorax  0.8763939738 1.470080018 3.66704011
lowerneck  2.939579964 6.518430233 -0.4610170126
upperneck  14.96459961 7.53358984 8.224960327
head  4.054019928 3.92185998 3.026299953
lclavicle  0 -9.442270133e-015 7.951389973e-016
lhumerus  27.13920021 -7.813670158 82.50700378
lradius  2.167804625e-031 -2.787376391e-031 127.8730011
lwrist  -7.062250077e-031 2.648343779e-031 22.08919907
lhand  -1.496451383e-031 -27.76390076 20.11240005
lfingers  90 7.125020027 -90
lthumb  89.89689403 5.08795885 91.16245106
rclavicle  0 -9.442270133e-015 7.951389973e-016
rhumerus  31.87999916 12.99120045 -78.44979858
rradius  -7.160067957e-032 3.457770713e-031 101.6989975
rwrist  3.531125038e-031 3.531125038e-031 -61.21590042
rhand  -7.920061211e-032 -33.2840004 9.303460121
rfingers  -90 -7.125020027 -90
rthumb  -92.93752616 -24.25625642 -97.11982154
rfemur  -16.85429955 7.903759956 -8.967140198
rtibia  -0 0 70.87950134
rfoot  -4.698956605e-032 -20.05940056 3.673130035
rtoes  5.373923086 19.29304026 -105.8922705
lfemur  -21.69499969 -3.421809912 -2.838730097
ltibia  -0 0 71.25450134
lfoot  5.161394668e-032 -31.22069931 2.035809994
ltoes  -4.250644065 -19.5611806 -102.515957
71
root  15.36306697 34.36066635 4.041511055 -11.977005 -58.38700104 2.416000366
lowerback  15.94890022 3.205840111 0.01352879964
upperback  9.153490067 3.909849882 4.217199802
thorax  0.5044900179 1.707730055 3.824249983
lowerneck  2.065380096 6.386650085 -0.9873650074
upperneck  15.6566 7.265079975 8.756640434
head  3.952739954 3.842880011 3.020910025
lclavicle  0 -9.442270133e-015 7.951389973e-016
lhumerus  27.6317997 -7.777180195 82.42269897
lradius  2.17261758e-031 -2.783626572e-031 127.9720001
lwrist  -7.062250077e-031 8.827812596e-032 22.18120003
lhand  -1.496451383e-031 -27.76390076 20.11240005
lfingers  90 7.125020027 -90
lthumb  89.89689403 5.08795885 91.16245106
rclavicle  0 -9.442270133e-015 7.951389973e-016
rhumerus  32.28779984 12.5625 -78.24530029
rradius  -7.566922515e-032 3.44909566e-031 102.3740005
rwrist  3.531125038e-031 7.062250077e-031 -60.83440018
rhand  -7.920061211e-032 -33.2840004 9.303460121
rfingers  -90 -7.125020027 -90
rthumb  -92.93752616 -24.25625642 -97.11982154
rfemur  -15.75590038 7.775710106 -7.826069832
rtibia  -0 0 69.46309662
rfoot  -4.729100574e-032 -21.03680038 1.269000053
rtoes  5.373923086 19.29304026 -105.8922705
lfemur  -21.44050026 -3.605720043 -2.44092989
ltibia  -0 0 69.48819733
lfoot  5.098343633e-032 -30.03120041 0.9543110132
ltoes  -4.250644065 -19.5611806 -102.515957
72
root  15.1969339 34.68199903 3.956799995 -11.68099976 -57.66200256 2.727996826
lowerback  15.4343996 3.487730026 -0.6866300106
upperback  8.485070229 4.253779888 3.780600071
thorax  0.01918740012 1.900570035 3.702080011
lowerneck  1.186390042 6.341899872 -1.550079942
upperneck  16.15410042 7.101650238 9.512089729
head  4.199319839 3.798480034 3.384639978
lclavicle  0 -9.442270133e-015 7.951389973e-016
lhumerus  28.15060043 -7.576509953 81.98049927
lradius  2.174026559e-031 -2.78252629e-031 128.0010071
lwrist  0 -8.827812596e-032 22.64780045
lhand  -1.496451383e-031 -27.76390076 20.11240005
lfingers  90 7.125020027 -90
lthumb  89.89689403 5.08795885 91.16245106
rclavicle  0 -9.442270133e-015 7.951389973e-016
rhumerus  32.54439926 12.11260033 -78.31790161
rradius  -8.013543176e-032 3.438993355e-031 103.1169968
rwrist  7.062250077e-031 3.531125038e-031 -60.4640007
rhand  -7.920061211e-032 -33.2840004 9.303460121
rfingers  -90 -7.125020027 -90
rthumb  -92.93752616 -24.25625642 -97.11982154
rfemur  -14.69349957 7.55824995 -7.027460098
rtibia  -0 0 68.0983963
rfoot  -4.762242291e-032 -22.0503006 -1.217910051
rtoes  5.373923086 19.29304026 -105.8922705
lfemur  -21.34740067 -3.719959974 -2.352299929
ltibia  -0 0 67.81130219
lfoot  5.183137801e-032 -28.57379913 -0.1042440012
ltoes  -4.250644065 -19.5611806 -102.515957
